<?xml version="1.0" encoding="utf-8"?>
<!-- Generator: Adobe Illustrator 21.0.0, SVG Export Plug-In . SVG Version: 6.00 Build 0)  -->
<svg version="1.1" id="Layer_1" xmlns="http://www.w3.org/2000/svg" xmlns:xlink="http://www.w3.org/1999/xlink" x="0px" y="0px"
	 viewBox="0 0 48 48" style="enable-background:new 0 0 48 48;" xml:space="preserve">
<style type="text/css">
	.st0{fill:#212121;}
</style>
<path class="st0" d="M24,25.4l5.6,5.6c0.4,0.4,1,0.4,1.4,0c0.4-0.4,0.4-1,0-1.4L25.4,24l5.6-5.6c0.4-0.4,0.4-1,0-1.4
	c-0.4-0.4-1-0.4-1.4,0L24,22.6L18.4,17c-0.4-0.4-1-0.4-1.4,0c-0.4,0.4-0.4,1,0,1.4l5.6,5.6L17,29.6c-0.4,0.4-0.4,1,0,1.4
	c0.4,0.4,1,0.4,1.4,0L24,25.4z"/>
</svg>
