<?xml version="1.0" encoding="utf-8"?>
<!-- Generator: Adobe Illustrator 21.0.0, SVG Export Plug-In . SVG Version: 6.00 Build 0)  -->
<svg version="1.1" id="Layer_1" xmlns="http://www.w3.org/2000/svg" xmlns:xlink="http://www.w3.org/1999/xlink" x="0px" y="0px"
	 viewBox="0 0 48 48" style="enable-background:new 0 0 48 48;" xml:space="preserve">
<style type="text/css">
	.st0{fill:#212121;}
</style>
<g>
	<path class="st0" d="M16.6,25H31c0.6,0,1-0.4,1-1s-0.4-1-1-1H16.6c-0.6,0-1,0.4-1,1S16.1,25,16.6,25z"/>
	<path class="st0" d="M16.6,20H31c0.6,0,1-0.4,1-1s-0.4-1-1-1H16.6c-0.6,0-1,0.4-1,1S16.1,20,16.6,20z"/>
	<path class="st0" d="M31,28H16.6c-0.6,0-1,0.4-1,1s0.4,1,1,1H31c0.6,0,1-0.4,1-1S31.6,28,31,28z"/>
</g>
</svg>
