<?xml version="1.0" encoding="utf-8"?>
<!-- Generator: Adobe Illustrator 21.0.0, SVG Export Plug-In . SVG Version: 6.00 Build 0)  -->
<svg version="1.1" id="Layer_1" xmlns="http://www.w3.org/2000/svg" xmlns:xlink="http://www.w3.org/1999/xlink" x="0px" y="0px"
	 viewBox="0 0 48 48" style="enable-background:new 0 0 48 48;" xml:space="preserve">
<style type="text/css">
	.st0{fill:#38AFC7;}
	.st1{fill:#FFFFFF;}
</style>
<g>
	<path class="st0" d="M26.8,21.5c0,1.5-1.2,2.7-2.7,2.7s-2.7-1.2-2.7-2.7c0-1.5,1.2-2.7,2.7-2.7S26.8,20,26.8,21.5z M24,13.8
		c-5.6,0-10.2,4.6-10.2,10.2S18.4,34.2,24,34.2S34.2,29.6,34.2,24S29.6,13.8,24,13.8z M28.7,30.6c-0.3-2.7-1.5-5.5-4.6-5.5
		c-3.2,0-4.3,2.8-4.6,5.6c-2.1-1.5-3.5-3.9-3.5-6.7c0-4.5,3.6-8.1,8.1-8.1c4.5,0,8.1,3.6,8.1,8.1C32.1,26.7,30.7,29.2,28.7,30.6z"/>
	<polygon class="st1" points="26.8,29.8 26,28.9 23.1,31.4 22.2,30.3 21.2,31.1 23,33.1 	"/>
</g>
</svg>
