<?xml version="1.0" encoding="utf-8"?>
<!-- Generator: Adobe Illustrator 21.0.0, SVG Export Plug-In . SVG Version: 6.00 Build 0)  -->
<svg version="1.1" id="Layer_1" xmlns="http://www.w3.org/2000/svg" xmlns:xlink="http://www.w3.org/1999/xlink" x="0px" y="0px"
	 viewBox="0 0 48 48" style="enable-background:new 0 0 48 48;" xml:space="preserve">
<style type="text/css">
	.st0{fill:none;}
	.st1{fill:#38AFC7;}
</style>
<g>
	<path class="st0" d="M24,15.9c-4.5,0-8.1,3.7-8.1,8.1c0,2.8,1.4,5.2,3.5,6.7c0.3-2.8,1.4-5.6,4.6-5.6c3.2,0,4.3,2.8,4.6,5.5
		c2.1-1.5,3.4-3.9,3.4-6.6C32.1,19.5,28.5,15.9,24,15.9z M24,24.2c-1.5,0-2.7-1.2-2.7-2.7s1.2-2.7,2.7-2.7s2.7,1.2,2.7,2.7
		S25.5,24.2,24,24.2z"/>
	<polygon class="st0" points="23.1,31.4 22.2,30.3 21.2,31.1 23,33.1 26.8,29.8 26,28.9 	"/>
	<circle class="st1" cx="24" cy="21.5" r="2.7"/>
	<path class="st1" d="M24,13.8c-5.6,0-10.2,4.6-10.2,10.2S18.4,34.2,24,34.2S34.2,29.6,34.2,24S29.6,13.8,24,13.8z M23,33.1l-1.8-2
		l0.9-0.8l1,1.1l2.8-2.5l0.8,0.9L23,33.1z M28.7,30.6c-0.3-2.7-1.5-5.5-4.6-5.5c-3.2,0-4.3,2.8-4.6,5.6c-2.1-1.5-3.5-3.9-3.5-6.7
		c0-4.5,3.6-8.1,8.1-8.1c4.5,0,8.1,3.6,8.1,8.1C32.1,26.7,30.7,29.2,28.7,30.6z"/>
</g>
</svg>
