<?xml version="1.0" encoding="utf-8"?>
<!-- Generator: Adobe Illustrator 21.0.0, SVG Export Plug-In . SVG Version: 6.00 Build 0)  -->
<svg version="1.1" id="Layer_1" xmlns="http://www.w3.org/2000/svg" xmlns:xlink="http://www.w3.org/1999/xlink" x="0px" y="0px"
	 viewBox="0 0 48 48" style="enable-background:new 0 0 48 48;" xml:space="preserve">
<style type="text/css">
	.st0{fill:#212121;}
</style>
<path class="st0" d="M13.2,15.9c-0.5,0-0.8,0.4-0.9,0.9c0,0.5,0.4,0.9,0.9,1l2.9,0.1l0.7,2.5c0,0.1,0,0.1,0,0.2l2,7
	c0,0.1,0,0.1,0.1,0.1c0,0,0,0,0,0c0,0,0,0,0,0c0,0,0,0,0,0c0,0,0,0,0,0c0,0,0,0,0,0c0,0,0,0,0,0c0,0,0,0,0,0c0,0,0,0,0,0
	c0,0,0,0,0,0c0,0,0,0,0,0c0,0,0,0,0,0c0,0,0,0,0,0c0,0,0,0,0,0c0,0,0,0,0,0c0,0,0,0,0,0c0,0,0,0,0,0c0,0,0,0,0,0c0,0,0,0,0,0
	c0,0,0,0,0,0c0,0,0,0,0,0c0,0,0,0,0,0c0,0,0,0,0,0c0.1,0,0.1,0,0.2,0h0h0H32c0.4,0,0.8-0.3,0.9-0.7l2.7-7c0.1-0.3,0-0.6-0.2-0.8
	c-0.2-0.2-0.4-0.4-0.7-0.4H18.4l-0.7-2.6c-0.1-0.4-0.4-0.7-0.8-0.7L13.2,15.9C13.3,15.9,13.2,15.9,13.2,15.9L13.2,15.9z M18.9,21.2
	h14.6l-2.2,5.2H20.4L18.9,21.2L18.9,21.2z M21.9,28.6c-1.4,0-2.5,1.1-2.5,2.5s1.1,2.5,2.5,2.5c1.4,0,2.5-1.1,2.5-2.5
	S23.3,28.6,21.9,28.6L21.9,28.6z M29.5,28.6c-1.4,0-2.5,1.1-2.5,2.5s1.1,2.5,2.5,2.5c1.4,0,2.5-1.1,2.5-2.5S30.9,28.6,29.5,28.6
	L29.5,28.6z M21.9,30.4c0.4,0,0.7,0.3,0.7,0.7s-0.3,0.7-0.7,0.7c-0.4,0-0.7-0.3-0.7-0.7S21.5,30.4,21.9,30.4z M29.5,30.4
	c0.4,0,0.7,0.3,0.7,0.7s-0.3,0.7-0.7,0.7c-0.4,0-0.7-0.3-0.7-0.7S29.1,30.4,29.5,30.4z"/>
</svg>
