<?xml version="1.0" encoding="utf-8"?>
<!-- Generator: Adobe Illustrator 21.0.0, SVG Export Plug-In . SVG Version: 6.00 Build 0)  -->
<svg version="1.1" id="Layer_1" xmlns="http://www.w3.org/2000/svg" xmlns:xlink="http://www.w3.org/1999/xlink" x="0px" y="0px"
	 viewBox="0 0 48 48" style="enable-background:new 0 0 48 48;" xml:space="preserve">
<style type="text/css">
	.st0{fill:#212121;}
</style>
<g>
	<path class="st0" d="M29.2,17.5L17.5,29.2c-0.4,0.4-0.4,1,0,1.3c0.4,0.4,1,0.4,1.3,0l11.7-11.7c0.4-0.4,0.4-1,0-1.3
		C30.2,17.1,29.6,17.1,29.2,17.5z"/>
	<path class="st0" d="M30.5,29.2L18.8,17.5c-0.4-0.4-1-0.4-1.3,0c-0.4,0.4-0.4,1,0,1.3l11.7,11.7c0.4,0.4,1,0.4,1.3,0
		C30.9,30.2,30.9,29.6,30.5,29.2z"/>
</g>
</svg>
