<?xml version="1.0" encoding="utf-8"?>
<!-- Generator: Adobe Illustrator 21.0.0, SVG Export Plug-In . SVG Version: 6.00 Build 0)  -->
<svg version="1.1" id="Layer_1" xmlns="http://www.w3.org/2000/svg" xmlns:xlink="http://www.w3.org/1999/xlink" x="0px" y="0px"
	 viewBox="0 0 48 48" style="enable-background:new 0 0 48 48;" xml:space="preserve">
<style type="text/css">
	.st0{fill:#212121;}
</style>
<path class="st0" d="M17.1,24.9h13.4c0.5,0,0.9-0.4,0.9-0.9c0-0.5-0.4-0.9-0.9-0.9H17.1c-0.5,0-0.9,0.4-0.9,0.9
	C16.2,24.5,16.6,24.9,17.1,24.9z"/>
<path class="st0" d="M17.1,20.3h13.4c0.5,0,0.9-0.4,0.9-0.9c0-0.5-0.4-0.9-0.9-0.9H17.1c-0.5,0-0.9,0.4-0.9,0.9
	C16.2,19.9,16.6,20.3,17.1,20.3z"/>
<path class="st0" d="M30.5,27.7H17.1c-0.5,0-0.9,0.4-0.9,0.9s0.4,0.9,0.9,0.9h13.4c0.5,0,0.9-0.4,0.9-0.9S31,27.7,30.5,27.7z"/>
</svg>
