<?xml version="1.0" encoding="utf-8"?>
<!-- Generator: Adobe Illustrator 21.0.0, SVG Export Plug-In . SVG Version: 6.00 Build 0)  -->
<svg version="1.1" id="Layer_1" xmlns="http://www.w3.org/2000/svg" xmlns:xlink="http://www.w3.org/1999/xlink" x="0px" y="0px"
	 viewBox="0 0 48 48" style="enable-background:new 0 0 48 48;" xml:space="preserve">
<style type="text/css">
	.st0{fill:#212121;}
</style>
<path class="st0" d="M31.8,31.4l-3.9-3.9c0.9-1.2,1.3-2.5,1.3-4c0-3.6-3-6.6-6.6-6.6s-6.6,3-6.6,6.6s3,6.6,6.6,6.6
	c1.5,0,2.8-0.5,4-1.3l3.9,3.9c0.2,0.2,0.4,0.3,0.6,0.3s0.5-0.1,0.6-0.3C32.2,32.3,32.2,31.7,31.8,31.4z M22.6,28.3
	c-2.7,0-4.8-2.2-4.8-4.8s2.2-4.8,4.8-4.8s4.8,2.2,4.8,4.8C27.4,26.1,25.3,28.3,22.6,28.3z"/>
</svg>
